<?xml version="1.0" encoding="utf-8" standalone="no"?>
<!DOCTYPE svg PUBLIC "-//W3C//DTD SVG 1.1//EN"
  "http://www.w3.org/Graphics/SVG/1.1/DTD/svg11.dtd">
<!-- Created with matplotlib (https://matplotlib.org/) -->
<svg height="288pt" version="1.1" viewBox="0 0 432 288" width="432pt" xmlns="http://www.w3.org/2000/svg" xmlns:xlink="http://www.w3.org/1999/xlink">
 <defs>
  <style type="text/css">
*{stroke-linecap:butt;stroke-linejoin:round;}
  </style>
 </defs>
 <g id="figure_1">
  <g id="patch_1">
   <path d="M 0 288 
L 432 288 
L 432 0 
L 0 0 
z
" style="fill:#ffffff;"/>
  </g>
  <g id="axes_1">
   <g id="line2d_1">
    <path clip-path="url(#p2d255635ea)" d="M 69.218182 242.116364 
L 221.369564 242.116364 
L 221.4 44.443636 
L 221.491309 44.444206 
L 222.769636 44.571687 
L 224.047964 44.921836 
L 225.356727 45.509765 
L 226.726364 46.371368 
L 228.156873 47.536655 
L 229.678691 49.068551 
L 231.291818 51.013321 
L 233.026691 53.461903 
L 234.883309 56.475663 
L 236.892109 60.170926 
L 239.083527 64.683332 
L 241.488 70.163435 
L 244.135964 76.768769 
L 247.149164 84.906181 
L 250.679782 95.110762 
L 255.2148 108.945892 
L 270.585164 156.408305 
L 274.572327 167.678116 
L 278.133382 177.091218 
L 281.420509 185.164758 
L 284.525018 192.210403 
L 287.477345 198.371437 
L 290.338364 203.835858 
L 293.108073 208.655475 
L 295.816909 212.931659 
L 298.495309 216.748979 
L 301.143273 220.139181 
L 303.7608 223.135463 
L 306.378327 225.800656 
L 309.026291 228.183537 
L 311.704691 230.298358 
L 314.443964 232.180676 
L 317.274545 233.856461 
L 320.226873 235.344002 
L 323.300945 236.644061 
L 326.588073 237.790753 
L 330.118691 238.784027 
L 333.984109 239.636557 
L 338.275636 240.351593 
L 343.175891 240.938088 
L 348.989236 241.402243 
L 356.202655 241.74498 
L 365.972727 241.971706 
L 373.581818 242.050052 
L 373.581818 242.050052 
" style="fill:none;stroke:#000000;stroke-linecap:square;stroke-width:1.5;"/>
   </g>
   <g id="text_1">
    <!-- |$ \mathcal{N} |$ -->
    <defs>
     <path d="M 21 76.421875 
L 21 -23.578125 
L 12.703125 -23.578125 
L 12.703125 76.421875 
z
" id="DejaVuSans-124"/>
     <path d="M 67.09375 12.5 
L 67.203125 12.5 
Q 82.703125 63.59375 84.5 68.40625 
Q 85.5 70.90625 86.296875 72.09375 
Q 91.09375 79.5 97.703125 79.5 
Q 101.40625 79.5 103.90625 77.046875 
Q 106.40625 74.59375 106.40625 71.09375 
Q 106.40625 68.40625 105 66.75 
Q 103.59375 65.09375 101.09375 65.09375 
Q 99.5 65.09375 98.390625 66 
Q 97.296875 66.90625 96.84375 67.953125 
Q 96.40625 69 95.59375 69.890625 
Q 94.796875 70.796875 93.796875 70.796875 
Q 92.796875 70.796875 91.890625 70.4375 
Q 91 70.09375 90.390625 69.640625 
Q 89.796875 69.203125 89.140625 68.296875 
Q 88.5 67.40625 88.09375 66.796875 
Q 87.703125 66.203125 87.25 65.046875 
Q 86.796875 63.90625 86.640625 63.40625 
Q 86.5 62.90625 86.09375 61.75 
Q 85.703125 60.59375 85.703125 60.40625 
L 66.59375 -2.40625 
L 64.59375 -2.40625 
Q 48.09375 20 38.796875 45.203125 
L 38.59375 45.203125 
Q 37.59375 40.296875 36.84375 36.890625 
Q 36.09375 33.5 34.59375 28 
Q 33.09375 22.5 31.6875 18.59375 
Q 30.296875 14.703125 28.1875 10.203125 
Q 26.09375 5.703125 23.890625 2.890625 
Q 21.703125 0.09375 18.796875 -1.796875 
Q 15.90625 -3.703125 12.703125 -3.703125 
Q 9 -3.703125 6.5 -1.25 
Q 4 1.203125 4 4.703125 
Q 4 7.40625 5.390625 9.046875 
Q 6.796875 10.703125 9.296875 10.703125 
Q 10.90625 10.703125 12 9.796875 
Q 13.09375 8.90625 13.546875 7.84375 
Q 14 6.796875 14.796875 5.890625 
Q 15.59375 5 16.59375 5 
Q 19.09375 5 21.390625 7.5 
Q 23.703125 10 25.59375 14.5 
Q 27.5 19 29.09375 24.09375 
Q 30.703125 29.203125 32.140625 35.75 
Q 33.59375 42.296875 34.59375 47.390625 
Q 35.59375 52.5 36.6875 58.453125 
Q 37.796875 64.40625 38.40625 67.09375 
L 41.09375 67.09375 
Q 41.90625 65.09375 44.90625 57.5 
Q 47.90625 49.90625 49.09375 47 
Q 50.296875 44.09375 53 37.84375 
Q 55.703125 31.59375 57.546875 28.09375 
Q 59.40625 24.59375 62 20.1875 
Q 64.59375 15.796875 67.09375 12.5 
z
" id="STIXNonUnicode-Italic-57914"/>
    </defs>
    <g transform="translate(107.263636 192.567159)scale(0.6 -0.6)">
     <use transform="translate(0 0.5)" xlink:href="#DejaVuSans-124"/>
     <use transform="translate(33.691406 0.5)" xlink:href="#STIXNonUnicode-Italic-57914"/>
     <use transform="translate(129.391388 0.5)" xlink:href="#DejaVuSans-124"/>
    </g>
   </g>
  </g>
 </g>
 <defs>
  <clipPath id="p2d255635ea">
   <rect height="217.44" width="334.8" x="54" y="34.56"/>
  </clipPath>
 </defs>
</svg>
