<?xml version="1.0" encoding="utf-8" standalone="no"?>
<!DOCTYPE svg PUBLIC "-//W3C//DTD SVG 1.1//EN"
  "http://www.w3.org/Graphics/SVG/1.1/DTD/svg11.dtd">
<!-- Created with matplotlib (https://matplotlib.org/) -->
<svg height="288pt" version="1.1" viewBox="0 0 432 288" width="432pt" xmlns="http://www.w3.org/2000/svg" xmlns:xlink="http://www.w3.org/1999/xlink">
 <defs>
  <style type="text/css">
*{stroke-linecap:butt;stroke-linejoin:round;}
  </style>
 </defs>
 <g id="figure_1">
  <g id="patch_1">
   <path d="M 0 288 
L 432 288 
L 432 0 
L 0 0 
z
" style="fill:#ffffff;"/>
  </g>
  <g id="axes_1">
   <g id="line2d_1">
    <path clip-path="url(#p4db5f72a77)" d="M 69.218182 242.116364 
L 83.4624 241.906196 
L 92.136764 241.566936 
L 98.650145 241.097112 
L 103.946073 240.498067 
L 108.481091 239.765917 
L 112.498691 238.894691 
L 116.120618 237.884265 
L 119.468618 236.720277 
L 122.573127 235.408063 
L 125.525455 233.920023 
L 128.356036 232.243676 
L 131.095309 230.360726 
L 133.743273 228.270858 
L 136.3608 225.91976 
L 138.947891 223.293875 
L 141.534982 220.345213 
L 144.122073 217.052717 
L 146.709164 213.397216 
L 149.326691 209.312296 
L 152.005091 204.715707 
L 154.744364 199.568124 
L 157.574945 193.76926 
L 160.527273 187.203863 
L 163.631782 179.744389 
L 166.918909 171.256754 
L 170.5104 161.351629 
L 174.558436 149.51485 
L 179.610873 134.012379 
L 193.155055 92.07254 
L 196.776982 81.80777 
L 199.820618 73.825084 
L 202.499018 67.400053 
L 204.933927 62.122654 
L 207.125345 57.883452 
L 209.164582 54.409468 
L 211.051636 51.624759 
L 212.786509 49.447 
L 214.399636 47.762791 
L 215.921455 46.483204 
L 217.351964 45.559772 
L 218.7216 44.933043 
L 220.030364 44.57173 
L 221.308691 44.444206 
L 222.587018 44.539857 
L 223.865345 44.858358 
L 225.174109 45.414186 
L 226.543745 46.242643 
L 227.974255 47.373936 
L 229.496073 48.870523 
L 231.1092 50.779005 
L 232.844073 53.190077 
L 234.700691 56.165671 
L 236.709491 59.822214 
L 238.870473 64.230321 
L 241.244509 69.593359 
L 243.862036 76.070706 
L 246.814364 83.986457 
L 250.284109 93.954054 
L 254.666945 107.265585 
L 271.437382 158.913994 
L 275.3028 169.7044 
L 278.802982 178.830502 
L 282.059673 186.709909 
L 285.133745 193.574083 
L 288.055636 199.568124 
L 290.886218 204.879472 
L 293.655927 209.610211 
L 296.364764 213.801973 
L 299.043164 217.539129 
L 301.691127 220.853984 
L 304.308655 223.780098 
L 306.956618 226.408153 
L 309.604582 228.726241 
L 312.313418 230.802734 
L 315.083127 232.645102 
L 317.944145 234.279706 
L 320.926909 235.725339 
L 324.061855 236.995119 
L 327.409855 238.107433 
L 331.001345 239.063911 
L 334.958073 239.883793 
L 339.371345 240.567483 
L 344.454218 241.124807 
L 350.541491 241.560207 
L 358.211455 241.875007 
L 368.925055 242.075271 
L 373.581818 242.116364 
L 373.581818 242.116364 
" style="fill:none;stroke:#000000;stroke-linecap:square;stroke-width:1.5;"/>
   </g>
   <g id="text_1">
    <!-- Normal -->
    <defs>
     <path d="M 9.8125 72.90625 
L 23.09375 72.90625 
L 55.421875 11.921875 
L 55.421875 72.90625 
L 64.984375 72.90625 
L 64.984375 0 
L 51.703125 0 
L 19.390625 60.984375 
L 19.390625 0 
L 9.8125 0 
z
" id="DejaVuSans-78"/>
     <path d="M 30.609375 48.390625 
Q 23.390625 48.390625 19.1875 42.75 
Q 14.984375 37.109375 14.984375 27.296875 
Q 14.984375 17.484375 19.15625 11.84375 
Q 23.34375 6.203125 30.609375 6.203125 
Q 37.796875 6.203125 41.984375 11.859375 
Q 46.1875 17.53125 46.1875 27.296875 
Q 46.1875 37.015625 41.984375 42.703125 
Q 37.796875 48.390625 30.609375 48.390625 
z
M 30.609375 56 
Q 42.328125 56 49.015625 48.375 
Q 55.71875 40.765625 55.71875 27.296875 
Q 55.71875 13.875 49.015625 6.21875 
Q 42.328125 -1.421875 30.609375 -1.421875 
Q 18.84375 -1.421875 12.171875 6.21875 
Q 5.515625 13.875 5.515625 27.296875 
Q 5.515625 40.765625 12.171875 48.375 
Q 18.84375 56 30.609375 56 
z
" id="DejaVuSans-111"/>
     <path d="M 41.109375 46.296875 
Q 39.59375 47.171875 37.8125 47.578125 
Q 36.03125 48 33.890625 48 
Q 26.265625 48 22.1875 43.046875 
Q 18.109375 38.09375 18.109375 28.8125 
L 18.109375 0 
L 9.078125 0 
L 9.078125 54.6875 
L 18.109375 54.6875 
L 18.109375 46.1875 
Q 20.953125 51.171875 25.484375 53.578125 
Q 30.03125 56 36.53125 56 
Q 37.453125 56 38.578125 55.875 
Q 39.703125 55.765625 41.0625 55.515625 
z
" id="DejaVuSans-114"/>
     <path d="M 52 44.1875 
Q 55.375 50.25 60.0625 53.125 
Q 64.75 56 71.09375 56 
Q 79.640625 56 84.28125 50.015625 
Q 88.921875 44.046875 88.921875 33.015625 
L 88.921875 0 
L 79.890625 0 
L 79.890625 32.71875 
Q 79.890625 40.578125 77.09375 44.375 
Q 74.3125 48.1875 68.609375 48.1875 
Q 61.625 48.1875 57.5625 43.546875 
Q 53.515625 38.921875 53.515625 30.90625 
L 53.515625 0 
L 44.484375 0 
L 44.484375 32.71875 
Q 44.484375 40.625 41.703125 44.40625 
Q 38.921875 48.1875 33.109375 48.1875 
Q 26.21875 48.1875 22.15625 43.53125 
Q 18.109375 38.875 18.109375 30.90625 
L 18.109375 0 
L 9.078125 0 
L 9.078125 54.6875 
L 18.109375 54.6875 
L 18.109375 46.1875 
Q 21.1875 51.21875 25.484375 53.609375 
Q 29.78125 56 35.6875 56 
Q 41.65625 56 45.828125 52.96875 
Q 50 49.953125 52 44.1875 
z
" id="DejaVuSans-109"/>
     <path d="M 34.28125 27.484375 
Q 23.390625 27.484375 19.1875 25 
Q 14.984375 22.515625 14.984375 16.5 
Q 14.984375 11.71875 18.140625 8.90625 
Q 21.296875 6.109375 26.703125 6.109375 
Q 34.1875 6.109375 38.703125 11.40625 
Q 43.21875 16.703125 43.21875 25.484375 
L 43.21875 27.484375 
z
M 52.203125 31.203125 
L 52.203125 0 
L 43.21875 0 
L 43.21875 8.296875 
Q 40.140625 3.328125 35.546875 0.953125 
Q 30.953125 -1.421875 24.3125 -1.421875 
Q 15.921875 -1.421875 10.953125 3.296875 
Q 6 8.015625 6 15.921875 
Q 6 25.140625 12.171875 29.828125 
Q 18.359375 34.515625 30.609375 34.515625 
L 43.21875 34.515625 
L 43.21875 35.40625 
Q 43.21875 41.609375 39.140625 45 
Q 35.0625 48.390625 27.6875 48.390625 
Q 23 48.390625 18.546875 47.265625 
Q 14.109375 46.140625 10.015625 43.890625 
L 10.015625 52.203125 
Q 14.9375 54.109375 19.578125 55.046875 
Q 24.21875 56 28.609375 56 
Q 40.484375 56 46.34375 49.84375 
Q 52.203125 43.703125 52.203125 31.203125 
z
" id="DejaVuSans-97"/>
     <path d="M 9.421875 75.984375 
L 18.40625 75.984375 
L 18.40625 0 
L 9.421875 0 
z
" id="DejaVuSans-108"/>
    </defs>
    <g transform="translate(196.670455 143.051033)scale(0.14 -0.14)">
     <use xlink:href="#DejaVuSans-78"/>
     <use x="74.804688" xlink:href="#DejaVuSans-111"/>
     <use x="135.986328" xlink:href="#DejaVuSans-114"/>
     <use x="177.083984" xlink:href="#DejaVuSans-109"/>
     <use x="274.496094" xlink:href="#DejaVuSans-97"/>
     <use x="335.775391" xlink:href="#DejaVuSans-108"/>
    </g>
   </g>
  </g>
 </g>
 <defs>
  <clipPath id="p4db5f72a77">
   <rect height="217.44" width="334.8" x="54" y="34.56"/>
  </clipPath>
 </defs>
</svg>
