<?xml version="1.0" encoding="utf-8" standalone="no"?>
<!DOCTYPE svg PUBLIC "-//W3C//DTD SVG 1.1//EN"
  "http://www.w3.org/Graphics/SVG/1.1/DTD/svg11.dtd">
<!-- Created with matplotlib (https://matplotlib.org/) -->
<svg height="288pt" version="1.1" viewBox="0 0 432 288" width="432pt" xmlns="http://www.w3.org/2000/svg" xmlns:xlink="http://www.w3.org/1999/xlink">
 <defs>
  <style type="text/css">
*{stroke-linecap:butt;stroke-linejoin:round;}
  </style>
 </defs>
 <g id="figure_1">
  <g id="patch_1">
   <path d="M 0 288 
L 432 288 
L 432 0 
L 0 0 
z
" style="fill:#ffffff;"/>
  </g>
  <g id="axes_1">
   <g id="line2d_1">
    <path clip-path="url(#p3e0d2b3447)" d="M 69.218182 242.116364 
L 83.4624 241.906196 
L 92.136764 241.566936 
L 98.650145 241.097112 
L 103.946073 240.498067 
L 108.481091 239.765917 
L 112.498691 238.894691 
L 116.120618 237.884265 
L 119.468618 236.720277 
L 122.573127 235.408063 
L 125.525455 233.920023 
L 128.356036 232.243676 
L 131.095309 230.360726 
L 133.743273 228.270858 
L 136.3608 225.91976 
L 138.947891 223.293875 
L 141.534982 220.345213 
L 144.122073 217.052717 
L 146.709164 213.397216 
L 149.326691 209.312296 
L 152.005091 204.715707 
L 154.744364 199.568124 
L 157.574945 193.76926 
L 160.527273 187.203863 
L 163.631782 179.744389 
L 166.918909 171.256754 
L 170.5104 161.351629 
L 174.558436 149.51485 
L 179.610873 134.012379 
L 193.155055 92.07254 
L 196.776982 81.80777 
L 199.820618 73.825084 
L 202.499018 67.400053 
L 204.933927 62.122654 
L 207.125345 57.883452 
L 209.164582 54.409468 
L 211.051636 51.624759 
L 212.786509 49.447 
L 214.399636 47.762791 
L 215.921455 46.483204 
L 217.351964 45.559772 
L 218.7216 44.933043 
L 220.030364 44.57173 
L 221.308691 44.444206 
L 222.587018 44.539857 
L 223.865345 44.858358 
L 225.174109 45.414186 
L 226.543745 46.242643 
L 227.974255 47.373936 
L 229.496073 48.870523 
L 231.1092 50.779005 
L 232.844073 53.190077 
L 234.700691 56.165671 
L 236.709491 59.822214 
L 238.870473 64.230321 
L 241.244509 69.593359 
L 243.862036 76.070706 
L 246.814364 83.986457 
L 250.284109 93.954054 
L 254.666945 107.265585 
L 271.437382 158.913994 
L 275.3028 169.7044 
L 278.802982 178.830502 
L 282.059673 186.709909 
L 285.133745 193.574083 
L 288.055636 199.568124 
L 290.886218 204.879472 
L 293.655927 209.610211 
L 296.364764 213.801973 
L 299.043164 217.539129 
L 301.691127 220.853984 
L 304.308655 223.780098 
L 306.956618 226.408153 
L 309.604582 228.726241 
L 312.313418 230.802734 
L 315.083127 232.645102 
L 317.944145 234.279706 
L 320.926909 235.725339 
L 324.061855 236.995119 
L 327.409855 238.107433 
L 331.001345 239.063911 
L 334.958073 239.883793 
L 339.371345 240.567483 
L 344.454218 241.124807 
L 350.541491 241.560207 
L 358.211455 241.875007 
L 368.925055 242.075271 
L 373.581818 242.116364 
L 373.581818 242.116364 
" style="fill:none;stroke:#000000;stroke-linecap:square;stroke-width:1.5;"/>
   </g>
   <g id="text_1">
    <!-- $\mathcal{N}$ -->
    <defs>
     <path d="M 67.09375 12.5 
L 67.203125 12.5 
Q 82.703125 63.59375 84.5 68.40625 
Q 85.5 70.90625 86.296875 72.09375 
Q 91.09375 79.5 97.703125 79.5 
Q 101.40625 79.5 103.90625 77.046875 
Q 106.40625 74.59375 106.40625 71.09375 
Q 106.40625 68.40625 105 66.75 
Q 103.59375 65.09375 101.09375 65.09375 
Q 99.5 65.09375 98.390625 66 
Q 97.296875 66.90625 96.84375 67.953125 
Q 96.40625 69 95.59375 69.890625 
Q 94.796875 70.796875 93.796875 70.796875 
Q 92.796875 70.796875 91.890625 70.4375 
Q 91 70.09375 90.390625 69.640625 
Q 89.796875 69.203125 89.140625 68.296875 
Q 88.5 67.40625 88.09375 66.796875 
Q 87.703125 66.203125 87.25 65.046875 
Q 86.796875 63.90625 86.640625 63.40625 
Q 86.5 62.90625 86.09375 61.75 
Q 85.703125 60.59375 85.703125 60.40625 
L 66.59375 -2.40625 
L 64.59375 -2.40625 
Q 48.09375 20 38.796875 45.203125 
L 38.59375 45.203125 
Q 37.59375 40.296875 36.84375 36.890625 
Q 36.09375 33.5 34.59375 28 
Q 33.09375 22.5 31.6875 18.59375 
Q 30.296875 14.703125 28.1875 10.203125 
Q 26.09375 5.703125 23.890625 2.890625 
Q 21.703125 0.09375 18.796875 -1.796875 
Q 15.90625 -3.703125 12.703125 -3.703125 
Q 9 -3.703125 6.5 -1.25 
Q 4 1.203125 4 4.703125 
Q 4 7.40625 5.390625 9.046875 
Q 6.796875 10.703125 9.296875 10.703125 
Q 10.90625 10.703125 12 9.796875 
Q 13.09375 8.90625 13.546875 7.84375 
Q 14 6.796875 14.796875 5.890625 
Q 15.59375 5 16.59375 5 
Q 19.09375 5 21.390625 7.5 
Q 23.703125 10 25.59375 14.5 
Q 27.5 19 29.09375 24.09375 
Q 30.703125 29.203125 32.140625 35.75 
Q 33.59375 42.296875 34.59375 47.390625 
Q 35.59375 52.5 36.6875 58.453125 
Q 37.796875 64.40625 38.40625 67.09375 
L 41.09375 67.09375 
Q 41.90625 65.09375 44.90625 57.5 
Q 47.90625 49.90625 49.09375 47 
Q 50.296875 44.09375 53 37.84375 
Q 55.703125 31.59375 57.546875 28.09375 
Q 59.40625 24.59375 62 20.1875 
Q 64.59375 15.796875 67.09375 12.5 
z
" id="STIXNonUnicode-Italic-57914"/>
    </defs>
    <g transform="translate(171.940909 217.399782)scale(0.8 -0.8)">
     <use transform="translate(0 0.5)" xlink:href="#STIXNonUnicode-Italic-57914"/>
    </g>
   </g>
  </g>
 </g>
 <defs>
  <clipPath id="p3e0d2b3447">
   <rect height="217.44" width="334.8" x="54" y="34.56"/>
  </clipPath>
 </defs>
</svg>
