<?xml version="1.0" encoding="utf-8" standalone="no"?>
<!DOCTYPE svg PUBLIC "-//W3C//DTD SVG 1.1//EN"
  "http://www.w3.org/Graphics/SVG/1.1/DTD/svg11.dtd">
<!-- Created with matplotlib (https://matplotlib.org/) -->
<svg height="288pt" version="1.1" viewBox="0 0 432 288" width="432pt" xmlns="http://www.w3.org/2000/svg" xmlns:xlink="http://www.w3.org/1999/xlink">
 <defs>
  <style type="text/css">
*{stroke-linecap:butt;stroke-linejoin:round;}
  </style>
 </defs>
 <g id="figure_1">
  <g id="patch_1">
   <path d="M 0 288 
L 432 288 
L 432 0 
L 0 0 
z
" style="fill:#ffffff;"/>
  </g>
  <g id="axes_1">
   <g id="line2d_1">
    <path clip-path="url(#pf5114ad4bf)" d="M 69.218182 200.506168 
L 72.292562 193.103806 
L 75.366942 185.254971 
L 78.441322 177.02264 
L 81.515702 168.476659 
L 84.590083 159.692406 
L 87.664463 150.749391 
L 90.738843 141.729813 
L 93.813223 132.717126 
L 96.887603 123.794637 
L 99.961983 115.044161 
L 103.036364 106.544774 
L 106.110744 98.371663 
L 109.185124 90.595113 
L 112.259504 83.279623 
L 115.333884 76.483175 
L 118.408264 70.256658 
L 121.482645 64.643435 
L 124.557025 59.679069 
L 127.631405 55.391187 
L 130.705785 51.799489 
L 133.780165 48.915875 
L 136.854545 46.744688 
L 139.928926 45.283063 
L 143.003306 44.521352 
L 146.077686 44.443636 
L 149.152066 45.028281 
L 152.226446 46.248544 
L 155.300826 48.073207 
L 158.375207 50.467226 
L 161.449587 53.392389 
L 164.523967 56.807959 
L 167.598347 60.671306 
L 170.672727 64.938515 
L 173.747107 69.564957 
L 176.821488 74.505823 
L 179.895868 79.71662 
L 182.970248 85.15361 
L 186.044628 90.774217 
L 189.119008 96.537365 
L 192.193388 102.403782 
L 195.267769 108.336244 
L 198.342149 114.299779 
L 201.416529 120.26182 
L 204.490909 126.192316 
L 207.565289 132.063804 
L 210.639669 137.85144 
L 213.71405 143.533003 
L 216.78843 149.088859 
L 219.86281 154.501911 
L 222.93719 159.757514 
L 226.01157 164.84338 
L 229.08595 169.749459 
L 232.160331 174.467819 
L 235.234711 178.992499 
L 238.309091 183.319376 
L 241.383471 187.446009 
L 244.457851 191.371495 
L 247.532231 195.096316 
L 250.606612 198.622193 
L 253.680992 201.951944 
L 256.755372 205.089342 
L 259.829752 208.038987 
L 262.904132 210.806173 
L 265.978512 213.396778 
L 269.052893 215.817145 
L 272.127273 218.073987 
L 275.201653 220.174291 
L 278.276033 222.125229 
L 281.350413 223.934087 
L 284.424793 225.608193 
L 287.499174 227.154856 
L 290.573554 228.581314 
L 293.647934 229.894687 
L 296.722314 231.101939 
L 299.796694 232.209843 
L 302.871074 233.224957 
L 305.945455 234.153599 
L 309.019835 235.001832 
L 312.094215 235.775451 
L 315.168595 236.479975 
L 318.242975 237.120641 
L 321.317355 237.702403 
L 324.391736 238.229934 
L 327.466116 238.707625 
L 330.540496 239.139596 
L 333.614876 239.529699 
L 336.689256 239.881524 
L 339.763636 240.198416 
L 342.838017 240.483475 
L 345.912397 240.739575 
L 348.986777 240.969371 
L 352.061157 241.175311 
L 355.135537 241.359647 
L 358.209917 241.524448 
L 361.284298 241.67161 
L 364.358678 241.802867 
L 367.433058 241.919805 
L 370.507438 242.023866 
L 373.581818 242.116364 
" style="fill:none;stroke:#000000;stroke-linecap:square;stroke-width:1.5;"/>
   </g>
   <g id="line2d_2">
    <defs>
     <path d="M 0 3 
C 0.795609 3 1.55874 2.683901 2.12132 2.12132 
C 2.683901 1.55874 3 0.795609 3 0 
C 3 -0.795609 2.683901 -1.55874 2.12132 -2.12132 
C 1.55874 -2.683901 0.795609 -3 0 -3 
C -0.795609 -3 -1.55874 -2.683901 -2.12132 -2.12132 
C -2.683901 -1.55874 -3 -0.795609 -3 0 
C -3 0.795609 -2.683901 1.55874 -2.12132 2.12132 
C -1.55874 2.683901 -0.795609 3 0 3 
z
" id="m83c63f8385" style="stroke:#000000;"/>
    </defs>
    <g clip-path="url(#pf5114ad4bf)">
     <use style="stroke:#000000;" x="69.218182" xlink:href="#m83c63f8385" y="200.506168"/>
     <use style="stroke:#000000;" x="99.654545" xlink:href="#m83c63f8385" y="115.909187"/>
     <use style="stroke:#000000;" x="130.090909" xlink:href="#m83c63f8385" y="52.461452"/>
     <use style="stroke:#000000;" x="160.527273" xlink:href="#m83c63f8385" y="52.461452"/>
     <use style="stroke:#000000;" x="190.963636" xlink:href="#m83c63f8385" y="100.047254"/>
     <use style="stroke:#000000;" x="221.4" xlink:href="#m83c63f8385" y="157.150215"/>
     <use style="stroke:#000000;" x="251.836364" xlink:href="#m83c63f8385" y="199.977437"/>
     <use style="stroke:#000000;" x="282.272727" xlink:href="#m83c63f8385" y="224.450135"/>
     <use style="stroke:#000000;" x="312.709091" xlink:href="#m83c63f8385" y="235.921712"/>
     <use style="stroke:#000000;" x="343.145455" xlink:href="#m83c63f8385" y="240.510343"/>
    </g>
   </g>
  </g>
 </g>
 <defs>
  <clipPath id="pf5114ad4bf">
   <rect height="217.44" width="334.8" x="54" y="34.56"/>
  </clipPath>
 </defs>
</svg>
